<mxfile host="app.diagrams.net" modified="2023-05-08T03:28:13.086Z" agent="Mozilla/5.0 (Windows NT 10.0; Win64; x64) AppleWebKit/537.36 (KHTML, like Gecko) Chrome/112.0.0.0 Safari/537.36" etag="1Lbn8C67npXmLp-Mx1Hi" version="21.2.9" type="github">
  <diagram name="第 1 页" id="G6ob35Ybhl6GuW75NbIT">
    <mxGraphModel dx="1434" dy="774" grid="1" gridSize="10" guides="1" tooltips="1" connect="1" arrows="1" fold="1" page="1" pageScale="1" pageWidth="827" pageHeight="1169" math="0" shadow="0">
      <root>
        <mxCell id="0" />
        <mxCell id="1" parent="0" />
        <mxCell id="1eZFfgNydjS9IVwpI6Nl-3" style="edgeStyle=orthogonalEdgeStyle;rounded=0;orthogonalLoop=1;jettySize=auto;html=1;" edge="1" parent="1" source="1eZFfgNydjS9IVwpI6Nl-1" target="1eZFfgNydjS9IVwpI6Nl-2">
          <mxGeometry relative="1" as="geometry" />
        </mxCell>
        <mxCell id="1eZFfgNydjS9IVwpI6Nl-1" value="" style="rounded=0;whiteSpace=wrap;html=1;" vertex="1" parent="1">
          <mxGeometry x="110" y="150" width="120" height="60" as="geometry" />
        </mxCell>
        <mxCell id="1eZFfgNydjS9IVwpI6Nl-2" value="" style="shape=process;whiteSpace=wrap;html=1;backgroundOutline=1;" vertex="1" parent="1">
          <mxGeometry x="410" y="150" width="120" height="60" as="geometry" />
        </mxCell>
      </root>
    </mxGraphModel>
  </diagram>
</mxfile>
